<svg xmlns="http://www.w3.org/2000/svg" width="48" height="48" viewBox="0 0 48 48">
  <g id="Group_935" data-name="Department 935" transform="translate(-2685 -1054)">
    <rect id="Rectangle_647" data-name="Rectangle 647" width="48" height="48" transform="translate(2685 1054)" fill="none"/>
    <g id="Group_706" data-name="Department 706" transform="translate(2681 152.875)">
      <path id="Path_11668" data-name="Path 11668" d="M168.04,315.38l-.06-.49a2.748,2.748,0,0,0-2.176-2.535c-.032-.009-.058-.016-.078-.024l-.1-.033a3.386,3.386,0,0,1-1.188-.523,1.467,1.467,0,0,1-.007-.242,6.264,6.264,0,0,0,.72-1.372l.044-.01a.609.609,0,0,0,.358-.3c.884-1.4.219-2.085.075-2.21a.353.353,0,0,0-.041-.031,3.365,3.365,0,0,0-.737-2.075,3.094,3.094,0,0,0-2.12-1.031c-.016,0-.114-.007-.2,0s-.181.006-.2,0a3.1,3.1,0,0,0-2.122,1.031,3.356,3.356,0,0,0-.738,2.075.494.494,0,0,0-.042.032c-.143.124-.808.808.076,2.209a.609.609,0,0,0,.358.3l.044.01a6.264,6.264,0,0,0,.72,1.372,1.3,1.3,0,0,1-.007.242,3.371,3.371,0,0,1-1.188.523l-.1.034-.077.023a2.741,2.741,0,0,0-2.175,2.517l-.062.508-.149,1.235a8.958,8.958,0,0,0,11.325,0Z" transform="translate(-134.365 613.623)" fill="none" stroke="#3e50b4" stroke-miterlimit="10" stroke-width="2"/>
      <path id="Path_11669" data-name="Path 11669" d="M162.177,313.995" transform="translate(-133.677 615.21)" fill="none" stroke="#3e50b4" stroke-miterlimit="10" stroke-width="2"/>
      <g id="Group_616" data-name="Department 616" transform="translate(15 922.387)">
        <path id="Path_11670" data-name="Path 11670" d="M168.847,315.9a6.574,6.574,0,0,0,5.424-1.128l-.1-.8-.042-.317a1.815,1.815,0,0,0-1.508-1.634l-.054-.015-.071-.022a2.394,2.394,0,0,1-.823-.337.752.752,0,0,1-.006-.156,3.942,3.942,0,0,0,.5-.884l.03-.007a.414.414,0,0,0,.248-.192c.613-.9.152-1.345.052-1.425a.283.283,0,0,0-.028-.02,2.077,2.077,0,0,0-.511-1.338,2.22,2.22,0,0,0-1.469-.666c-.011,0-.079,0-.138,0s-.126,0-.137,0a2.222,2.222,0,0,0-1.471.666,2.072,2.072,0,0,0-.511,1.338l-.029.021c-.1.079-.561.521.052,1.424a.418.418,0,0,0,.248.192l.03.007a3.989,3.989,0,0,0,.5.884.806.806,0,0,1-.006.156,2.4,2.4,0,0,1-.823.337l-.072.022-.053.015" transform="translate(-148.271 -306.965)" fill="none" stroke="#3e50b4" stroke-miterlimit="10" stroke-width="2"/>
        <path id="Path_11671" data-name="Path 11671" d="M156.28,312.029l-.054-.015-.071-.022a2.417,2.417,0,0,1-.824-.337.851.851,0,0,1,0-.156,3.943,3.943,0,0,0,.5-.884l.03-.007a.414.414,0,0,0,.248-.192c.613-.9.152-1.345.053-1.424l-.029-.021a2.077,2.077,0,0,0-.511-1.338,2.223,2.223,0,0,0-1.472-.666c-.011,0-.076,0-.136,0s-.127,0-.139,0a2.223,2.223,0,0,0-1.469.666,2.077,2.077,0,0,0-.511,1.338l-.028.02c-.1.08-.561.522.052,1.425a.418.418,0,0,0,.248.192l.03.007a3.989,3.989,0,0,0,.5.884.948.948,0,0,1-.006.156,2.394,2.394,0,0,1-.823.337l-.072.022-.053.015a1.816,1.816,0,0,0-1.509,1.634l-.041.317-.1.8a6.571,6.571,0,0,0,5.423,1.128" transform="translate(-150.083 -306.965)" fill="none" stroke="#3e50b4" stroke-miterlimit="10" stroke-width="2"/>
      </g>
    </g>
  </g>
</svg>
